<?xml version="1.0" encoding="UTF-8" standalone="no"?>
<svg
   version="1.1"
   width="130px"
   height="70px"
   viewBox="-1640 -1360 4000 4000"
   id="svg27"
   sodipodi:docname="Elit Dynamon-SVG.svg"
   inkscape:version="1.1 (c68e22c387, 2021-05-23)"
   inkscape:export-filename="C:\Users\Hartaj Singh Sidhu\Desktop\Elit Dynamon\elit-dynamon-client\public\Elit Dynamon-SVG.png"
   inkscape:export-xdpi="96"
   inkscape:export-ydpi="96"
   xmlns:inkscape="http://www.inkscape.org/namespaces/inkscape"
   xmlns:sodipodi="http://sodipodi.sourceforge.net/DTD/sodipodi-0.dtd"
   xmlns="http://www.w3.org/2000/svg"
   xmlns:svg="http://www.w3.org/2000/svg">
  <defs
     id="defs31" />
  <sodipodi:namedview
     id="namedview29"
     pagecolor="#ffffff"
     bordercolor="#666666"
     borderopacity="1.0"
     inkscape:pageshadow="2"
     inkscape:pageopacity="0.0"
     inkscape:pagecheckerboard="0"
     showgrid="false"
     inkscape:zoom="7.5965969"
     inkscape:cx="35.739688"
     inkscape:cy="81.944588"
     inkscape:window-width="1920"
     inkscape:window-height="1051"
     inkscape:window-x="-9"
     inkscape:window-y="-9"
     inkscape:window-maximized="1"
     inkscape:current-layer="layer1" />
  <g
     id="layer1"
     style="display:inline"
     transform="translate(-102.28625,170.20717)">
    <g
       style="fill:#000000;fill-opacity:1;stroke-linejoin:miter"
       id="g4">
      <path
         d="m -2832.9995,-5005.316 v 0 0 h -6.6665 v 0 h 6.6665 v 0 h -6.6665 v 0 h 6.6665 m -6.6665,0 c 0,-1.8407 1.4922,-3.3334 3.3332,-3.3334 1.8411,0 3.3333,1.4927 3.3333,3.3334 v 0 0 c 0,1.841 -1.4922,3.3336 -3.3333,3.3336 -1.841,0 -3.3332,-1.4926 -3.3332,-3.3336 v 0 0 c 0,-1.8407 1.4922,-3.3334 3.3332,-3.3334 1.8411,0 3.3333,1.4927 3.3333,3.3334 v 0 0 c 0,1.841 -1.4922,3.3336 -3.3333,3.3336 -1.841,0 -3.3332,-1.4926 -3.3332,-3.3336 z"
         id="path2" />
    </g>
    <g
       style="fill:#000000;fill-opacity:1;stroke-linejoin:miter"
       id="g8">
      <path
         d="m -2832.9995,-5005.316 v 0 0 h -6.6665 v 0 h 6.6665 v 0 h -6.6665 v 0 h 6.6665 m -6.6665,0 c 0,-1.8407 1.4922,-3.3334 3.3332,-3.3334 1.8411,0 3.3333,1.4927 3.3333,3.3334 v 0 0 c 0,1.841 -1.4922,3.3336 -3.3333,3.3336 -1.841,0 -3.3332,-1.4926 -3.3332,-3.3336 v 0 0 c 0,-1.8407 1.4922,-3.3334 3.3332,-3.3334 1.8411,0 3.3333,1.4927 3.3333,3.3334 v 0 0 c 0,1.841 -1.4922,3.3336 -3.3333,3.3336 -1.841,0 -3.3332,-1.4926 -3.3332,-3.3336 z"
         id="path6" />
    </g>
    <g
       style="fill:#000000;fill-opacity:1;stroke-linejoin:miter"
       id="g12">
      <path
         d="m -44.948406,-1402.2324 v 0 0 h -6.666664 v 0 h 6.666664 v 0 h -6.666664 v 0 h 6.666664 m -6.666664,0 c 0,-1.841 1.49238,-3.3334 3.33333,-3.3334 1.84095,0 3.333334,1.4924 3.333334,3.3334 v 0 0 c 0,1.8409 -1.492384,3.3333 -3.333334,3.3333 -1.84095,0 -3.33333,-1.4924 -3.33333,-3.3333 v 0 0 c 0,-1.841 1.49238,-3.3334 3.33333,-3.3334 1.84095,0 3.333334,1.4924 3.333334,3.3334 v 0 0 c 0,1.8409 -1.492384,3.3333 -3.333334,3.3333 -1.84095,0 -3.33333,-1.4924 -3.33333,-3.3333 z"
         id="path10" />
    </g>
    <g
       style="fill:#000000;fill-opacity:1;stroke-linejoin:miter"
       id="g16">
      <path
         d="m -1040.2947,-3560.1855 v 0 9e-4 h -6.6667 v -9e-4 h 6.6667 v 9e-4 h -6.6667 v -9e-4 h 6.6667 m -6.6667,0 c 0,-1.8411 1.4924,-3.3333 3.3334,-3.3333 1.8409,0 3.3333,1.4922 3.3333,3.3333 v 0 9e-4 c 0,1.8411 -1.4924,3.3333 -3.3333,3.3333 -1.841,0 -3.3334,-1.4922 -3.3334,-3.3333 v 0 -9e-4 c 0,-1.8411 1.4924,-3.3333 3.3334,-3.3333 1.8409,0 3.3333,1.4922 3.3333,3.3333 v 0 9e-4 c 0,1.8411 -1.4924,3.3333 -3.3333,3.3333 -1.841,0 -3.3334,-1.4922 -3.3334,-3.3333 v 0 z"
         id="path14" />
    </g>
    <g
       style="fill:#000000;fill-opacity:1;stroke-linejoin:miter"
       id="g20">
      <path
         d="m -1037.8206,-3560.1855 v 0 9e-4 h -11.6149 v -9e-4 h 11.6149 v 9e-4 h -11.6149 v -9e-4 h 11.6149 m -11.6149,0 c 0,-3.2073 2.6001,-5.8075 5.8075,-5.8075 3.2073,0 5.8074,2.6002 5.8074,5.8075 v 0 9e-4 c 0,3.2073 -2.6001,5.8074 -5.8074,5.8074 -3.2074,0 -5.8075,-2.6001 -5.8075,-5.8074 v 0 -9e-4 c 0,-3.2073 2.6001,-5.8075 5.8075,-5.8075 3.2073,0 5.8074,2.6002 5.8074,5.8075 v 0 9e-4 c 0,3.2073 -2.6001,5.8074 -5.8074,5.8074 -3.2074,0 -5.8075,-2.6001 -5.8075,-5.8074 v 0 z"
         id="path18" />
    </g>
    <g
       style="fill:#00ccff;fill-opacity:1;stroke-linejoin:miter"
       id="g24"
       transform="matrix(1.6294908,0,0,1.3432003,-2085.5544,-1190.9548)">
      <path
         d="m 2819.6912,-250.06018 -0.087,0.002 -1346.364,33.32559 h -0.041 c -0.262,0 -0.5672,0 -0.8467,0.20507 v 0 c -1.4009,0.40944 -2.4527,1.75057 -2.4747,3.35781 -0.011,0.71662 0.1746,1.36157 0.5152,1.88881 h -0.011 l 309.9036,576.60612 c 0.5675,1.05956 1.6147,1.68399 2.732,1.68399 0.043,0 0.043,0 0.087,-0.002 l 0.012,0.002 730.7677,2.00654 c 0.087,0.002 0.2179,0.002 0.3055,0.005 0.087,0.002 0.7987,0.0205 2.06,0 38.8664,1.52024 720.1146,40.67179 670.2536,881.68295 v 0 c 0,0 0,0.256 -0.021,0.3072 0,0 -0.016,0.2558 -0.022,0.2558 v 0 c -0.5018,5.7143 -61.6791,676.3493 -787.6751,676.3493 -26.5985,0 -54.0707,-0.9009 -82.4891,-2.7641 -5.6492,-0.3582 -10.7144,-3.6137 -13.6054,-8.72 L 1114.1792,-181.82069 c -0.5673,-0.99301 -1.5885,-1.61235 -2.6971,-1.61235 h -0.042 l -1775.37921,32.10171 h -0.0421 c -1.78493,0 -3.27316,1.54585 -3.31681,3.4346 -5e-4,0.0137 0,0.0205 0,0 0,0.25614 0.0164,0.35833 0.0164,0.35833 l 3.34245,-3.79293 -18.50816,2852.45363 c -0.0156,1.8682 -1.92983,7.163 -0.17103,7.163 h 0.0421 0.13103 -0.0165 L 1580.6289,2665.074 c 1.7636,0 3.2124,-1.5661 3.2605,-3.4396 v 0 c 0.016,-0.6452 -0.1311,-1.2694 -0.4409,-1.8222 l -359.8228,-642.0794 h 7e-4 c -0.1309,-0.2559 -0.262,-0.4606 -0.4623,-0.6448 -0.5895,-0.6247 -1.3967,-0.9931 -2.2434,-0.9931 h -0.042 L 72.463115,2033.8734 h -4.63e-4 -0.262028 c -9.526324,0 -17.146796,-8.0794 -17.142009,-18.2413 l 0.218009,-452.1709 c 0.002,-5.0264 1.907229,-9.8947 5.285603,-13.508 3.377951,-3.6137 7.946463,-5.6688 12.675597,-5.7011 h -4.32e-4 l 853.164638,-5.9339 c 1.77618,-0.015 3.25136,-1.5458 3.29501,-3.4397 v 0 c 0.016,-0.645 -0.13105,-1.2899 -0.45408,-1.8427 L 590.58192,939.52061 v 0 c -0.54559,-0.96732 -1.53189,-1.59177 -2.67096,-1.61227 L 81.029196,934.60687 c -9.279774,0 -16.731356,-7.77266 -17.031169,-17.62643 L 51.851756,517.32083 c -0.131014,-5.08788 1.649708,-10.07446 4.995356,-13.812 3.347417,-3.7417 7.945155,-5.90838 12.737145,-6.00512 l 610.893923,-12.3609 v 0 c 0.0875,-0.002 0.21805,-0.005 0.34908,-0.005 6.04453,0 11.59595,3.30153 14.6862,8.75892 L 1912.7761,2643.1366 c 0.5759,1.0138 1.606,1.6125 2.6968,1.6125 h 0.1312 -0.016 l 626.8229,-5.7379 h 0.1311 -0.016 c 16.0605,-0.5784 1002.9491,-40.5477 1283.5819,-1139.0487 h -0.023 c 0.1744,-0.3584 0.262,-0.7627 0.3056,-1.1773 4.853,-205.0285 124.5113,-1441.952333 -1005.6308,-1748.76971 l -0.022,0.002 c 0,0 243.5654,9.88803 0.022,-0.002 z"
         id="path22"
         style="fill:#00ccff;stroke-width:1.60728"
         sodipodi:nodetypes="cccsssccccscccscsccssscccsccscccccsccccssccccscccsccccccssccccccccccssccscccccccccccc" />
    </g>
  </g>
</svg>
